<svg xmlns="http://www.w3.org/2000/svg" version="1.1" viewBox="-5.0 -10.0 110.0 135.0">
 <g>
  <path d="m50 32.812c-9.375 0-17.188 7.6562-17.188 17.188s7.8125 17.188 17.188 17.188 17.188-7.8125 17.188-17.188-7.8125-17.188-17.188-17.188z"/>
  <path d="m77.812 11.25h-55.625c-5.9375 0-11.094 5-11.094 11.094v55.469c0 5.9375 5 11.094 11.094 11.094h55.469c5.9375 0 11.094-5 11.094-11.094v-55.625c0-5.9375-5-10.938-10.938-10.938zm-27.812 59.062c-11.094 0-20.312-9.0625-20.312-20.312s9.0625-20.312 20.312-20.312 20.312 9.0625 20.312 20.312-9.0625 20.312-20.312 20.312zm27.656-44.531c-2.0312 0-3.4375-1.4062-3.4375-3.4375 0-1.875 1.5625-3.4375 3.4375-3.4375 1.7188 0 3.4375 1.5625 3.4375 3.4375-0.15625 2.0312-1.5625 3.4375-3.4375 3.4375z"/>
 </g>
</svg>